<svg xmlns="http://www.w3.org/2000/svg" xmlns:xlink="http://www.w3.org/1999/xlink" width="26rem" viewBox="0 0 420 420"><defs><style>.a{fill:#1d3249;}.b{clip-path:url(#a);}</style><clipPath id="a"><rect class="a" width="26.25rem" height="420" transform="translate(-0.002 -0.004)"/></clipPath></defs><g class="b" transform="translate(0.002 0.004)"><path class="a" d="M64.673,226.549a174.544,174.544,0,0,1-30.419-2.68,10,10,0,1,1,3.483-19.693c83.732,14.8,163.9-41.269,178.71-125a10,10,0,1,1,19.693,3.483c-14.92,84.372-88.6,143.89-171.466,143.89" transform="translate(60.648 165.463)"/><path class="a" d="M144.931,162.046a176.434,176.434,0,0,1-30.706-2.707A173.074,173.074,0,0,1,1.807,87.64,10,10,0,0,1,18.2,76.174a153.194,153.194,0,0,0,99.511,63.469,153.169,153.169,0,0,0,115.238-25.486,10,10,0,1,1,11.466,16.386,172.938,172.938,0,0,1-99.481,31.5" transform="translate(0 167.781)"/><path class="a" d="M154.058,236.294a10.112,10.112,0,0,1-1.753-.157,173.065,173.065,0,0,1-112.418-71.7A173.073,173.073,0,0,1,11.094,34.255a10,10,0,1,1,19.7,3.483A153.178,153.178,0,0,0,56.277,152.979a153.177,153.177,0,0,0,99.511,63.465,10,10,0,0,1-1.73,19.85" transform="translate(19.569 60.646)"/><path class="a" d="M66.756,248.676a9.984,9.984,0,0,1-8.2-4.263A174.206,174.206,0,0,1,101.456,1.8a10,10,0,0,1,11.466,16.39A154.205,154.205,0,0,0,74.94,232.943a10,10,0,0,1-8.183,15.733" transform="translate(63.118 -0.001)"/><path class="a" d="M46.931,164.047a10.112,10.112,0,0,1-1.753-.157A10,10,0,0,1,37.071,152.3,174.205,174.205,0,0,1,238.953,11.093a10,10,0,1,1-3.483,19.693,154.212,154.212,0,0,0-178.706,125,10,10,0,0,1-9.833,8.263" transform="translate(86.137 19.569)"/><path class="a" d="M290.086,117.113a9.987,9.987,0,0,1-8.2-4.267C233.141,43.161,136.806,26.128,67.128,74.863A10,10,0,0,1,55.665,58.477C134.38,3.422,243.211,22.671,298.27,101.38a10,10,0,0,1-8.183,15.733" transform="translate(119.918 63.19)"/><path class="a" d="M214.033,247.217a10.113,10.113,0,0,1-1.753-.157,10,10,0,0,1-8.106-11.586,154.207,154.207,0,0,0-125-178.71,10,10,0,1,1,3.483-19.693,173.062,173.062,0,0,1,112.418,71.7,173.066,173.066,0,0,1,28.789,130.184,10,10,0,0,1-9.833,8.263" transform="translate(165.462 86.132)"/><path class="a" d="M81.918,300.073a10,10,0,0,1-5.743-18.193,153.2,153.2,0,0,0,63.469-99.511A153.2,153.2,0,0,0,114.158,67.128a10,10,0,1,1,16.386-11.463,173.075,173.075,0,0,1,28.8,130.187,173.08,173.08,0,0,1-71.7,112.414,9.961,9.961,0,0,1-5.723,1.807" transform="translate(167.78 119.918)"/></g></svg>