<svg xmlns="http://www.w3.org/2000/svg" width="8rem" viewBox="0 0 162.641 162.641"><defs><style>.a,.b{fill:none;}.b{stroke:#ff7e31;stroke-linecap:round;stroke-linejoin:round;stroke-width:4px;}</style></defs><path class="a" d="M0,0H162.641V162.641H0Z"/><path class="b" d="M16.889,3.333H30.445A13.556,13.556,0,0,1,43.993,16.889v6.774A13.551,13.551,0,0,1,30.445,37.219H16.889A13.558,13.558,0,0,1,3.333,23.663V16.889A13.563,13.563,0,0,1,16.889,3.333Z" transform="translate(23.771 23.771)"/><path class="b" d="M16.889,10.833H30.445A13.556,13.556,0,0,1,43.993,24.389v20.33A13.556,13.556,0,0,1,30.445,58.275H16.889A13.563,13.563,0,0,1,3.333,44.719V24.389A13.563,13.563,0,0,1,16.889,10.833Z" transform="translate(23.771 77.261)"/><path class="b" d="M25.215,3.333H38.771A13.563,13.563,0,0,1,52.327,16.889v81.32a13.563,13.563,0,0,1-13.556,13.556H25.215A13.556,13.556,0,0,1,11.667,98.209V16.889A13.556,13.556,0,0,1,25.215,3.333Z" transform="translate(83.209 23.771)"/></svg>