<svg xmlns="http://www.w3.org/2000/svg" width="8rem" viewBox="0 0 164 164"><defs><style>.a,.b{fill:none;}.b{stroke:#ff7e31;stroke-linecap:round;stroke-linejoin:round;stroke-width:4px;}</style></defs><g transform="translate(0.68 0.68)"><path class="a" d="M0,0H164V164H0Z" transform="translate(-0.68 -0.68)"/><path class="b" d="M47.833,41A13.667,13.667,0,1,1,34.167,27.333,13.666,13.666,0,0,1,47.833,41Z" transform="translate(-0.68 -0.68)"/><path class="b" d="M95.667,41A13.667,13.667,0,1,1,82,27.333,13.667,13.667,0,0,1,95.667,41Z" transform="translate(-0.68 -0.68)"/><path class="b" d="M143.5,41a13.667,13.667,0,1,1-13.667-13.667A13.667,13.667,0,0,1,143.5,41Z" transform="translate(-0.68 -0.68)"/><path class="b" d="M47.833,123a13.667,13.667,0,1,1-13.666-13.667A13.666,13.666,0,0,1,47.833,123Z" transform="translate(-0.68 -0.68)"/><path class="b" d="M95.667,123A13.667,13.667,0,1,1,82,109.333,13.667,13.667,0,0,1,95.667,123Z" transform="translate(-0.68 -0.68)"/><path class="b" d="M34.167,54.667v54.666" transform="translate(-0.68 -0.68)"/><path class="b" d="M82,54.667v54.666" transform="translate(-0.68 -0.68)"/><path class="b" d="M129.833,54.667V68.333A13.666,13.666,0,0,1,116.167,82h-82" transform="translate(-0.68 -0.68)"/></g></svg>